{"asset":{"version":"2.0","generator":"babylon.js glTF exporter for 3dsmax 2020 v20210514.3"},"scene":0,"scenes":[{"nodes":[0]}],"nodes":[{"mesh":0,"translation":[-0.00118167663,0.0,0.0008333103],"name":"buddha_figure00006"}],"meshes":[{"primitives":[{"attributes":{"POSITION":1,"NORMAL":2,"TEXCOORD_0":3},"indices":0}],"name":"buddha_figure00006"}],"accessors":[{"bufferView":0,"componentType":5123,"count":64104,"type":"SCALAR","name":"accessorIndices"},{"bufferView":1,"componentType":5126,"count":64104,"max":[0.00520074833,0.0206067134,0.007098859],"min":[-0.004921462,0.0,-0.00125837361],"type":"VEC3","name":"accessorPositions"},{"bufferView":1,"byteOffset":769248,"componentType":5126,"count":64104,"type":"VEC3","name":"accessorNormals"},{"bufferView":2,"componentType":5126,"count":64104,"type":"VEC2","name":"accessorUVs"}],"bufferViews":[{"buffer":0,"byteLength":128208,"name":"bufferViewScalar"},{"buffer":0,"byteOffset":128208,"byteLength":1538496,"byteStride":12,"name":"bufferViewFloatVec3"},{"buffer":0,"byteOffset":1666704,"byteLength":512832,"byteStride":8,"name":"bufferViewFloatVec2"}],"buffers":[{"uri":"buddha.bin","byteLength":2179536}]}