{"asset":{"version":"2.0","generator":"babylon.js glTF exporter for 3dsmax 2020 v20210514.3"},"scene":0,"scenes":[{"nodes":[0]}],"nodes":[{"children":[1,2,4,6,8],"translation":[0.00121047022,0.04622043,2.08143414E-09],"rotation":[-0.00616149558,-0.8856967,-0.00081877,-0.464222759],"name":"Group008"},{"mesh":0,"translation":[-8.39226E-06,-0.0457437374,-5.960465E-11],"rotation":[0.00249608373,0.7071025,-0.002496083,0.7071023],"scale":[1.0,0.298717916,1.0],"name":"Box003"},{"children":[3],"translation":[0.07398513,-0.0300144516,0.0234139767],"rotation":[0.7071024,-0.00249608466,-0.00249607931,0.7071023],"scale":[0.817979157,0.8179792,0.8179792],"name":"Group005"},{"mesh":1,"translation":[-2.28881838E-08,0.008511454,0.004949108],"rotation":[6.984916E-10,6.98492042E-10,-5.9595088E-08,1.0],"scale":[1.00000012,-1.00000012,0.99999994],"name":"Plane020"},{"children":[5],"translation":[0.06537124,-0.0120694432,0.008124176],"rotation":[-0.00249638432,-0.707102358,0.7071024,0.00249581272],"scale":[0.817979336,0.817979157,0.8179792],"name":"Group006"},{"mesh":2,"translation":[-0.0125745935,-0.00757149654,-3.81469745E-09],"rotation":[8.14907142E-10,-1.04773779E-09,1.0,1.11762787E-07],"scale":[1.00000012,-1.00000012,1.00000012],"name":"Plane019"},{"children":[7],"translation":[0.07489445,-0.004276058,-0.0364079773],"rotation":[0.7071024,-0.00249613612,-0.00249602739,0.7071023],"scale":[0.817979336,0.817979157,0.8179792],"name":"Group007"},{"mesh":3,"translation":[-3.051758E-08,0.0443095043,0.006835644],"rotation":[-5.122274E-09,-5.23869E-09,-1.41575583E-07,1.0],"scale":[0.99999994,-1.00000012,0.99999994],"name":"Plane018"},{"mesh":4,"translation":[-0.143687531,-0.0422748141,-0.000507319462],"rotation":[1.38778738E-17,2.426315E-08,-0.00352999475,0.9999938],"scale":[0.962742031,0.962742,0.9627419],"name":"Tube002"}],"meshes":[{"primitives":[{"attributes":{"POSITION":1,"NORMAL":2,"TEXCOORD_0":3},"indices":0}],"name":"Box003"},{"primitives":[{"attributes":{"POSITION":5,"NORMAL":6,"TEXCOORD_0":7},"indices":4}],"name":"Plane020"},{"primitives":[{"attributes":{"POSITION":9,"NORMAL":10,"TEXCOORD_0":11},"indices":8}],"name":"Plane019"},{"primitives":[{"attributes":{"POSITION":13,"NORMAL":14,"TEXCOORD_0":15},"indices":12}],"name":"Plane018"},{"primitives":[{"attributes":{"POSITION":17,"NORMAL":18,"TEXCOORD_0":19},"indices":16}],"name":"Tube002"}],"accessors":[{"bufferView":0,"componentType":5123,"count":38928,"type":"SCALAR","name":"accessorIndices"},{"bufferView":1,"componentType":5126,"count":38928,"max":[0.06200001,0.008861232,0.214000016],"min":[-0.0620000027,0.0,-0.214000016],"type":"VEC3","name":"accessorPositions"},{"bufferView":1,"byteOffset":467136,"componentType":5126,"count":38928,"type":"VEC3","name":"accessorNormals"},{"bufferView":2,"componentType":5126,"count":38928,"type":"VEC2","name":"accessorUVs"},{"bufferView":0,"byteOffset":77856,"componentType":5123,"count":24,"type":"SCALAR","name":"accessorIndices"},{"bufferView":1,"byteOffset":934272,"componentType":5126,"count":24,"max":[0.08001422,0.0433423556,0.0143689774],"min":[-0.09225638,0.0,-0.0287254229],"type":"VEC3","name":"accessorPositions"},{"bufferView":1,"byteOffset":934560,"componentType":5126,"count":24,"type":"VEC3","name":"accessorNormals"},{"bufferView":2,"byteOffset":311424,"componentType":5126,"count":24,"type":"VEC2","name":"accessorUVs"},{"bufferView":0,"byteOffset":77904,"componentType":5123,"count":48,"type":"SCALAR","name":"accessorIndices"},{"bufferView":1,"byteOffset":934848,"componentType":5126,"count":48,"max":[0.0925779,0.0615018569,0.039714098],"min":[-0.112180583,-0.000577894738,-0.04995727],"type":"VEC3","name":"accessorPositions"},{"bufferView":1,"byteOffset":935424,"componentType":5126,"count":48,"type":"VEC3","name":"accessorNormals"},{"bufferView":2,"byteOffset":311616,"componentType":5126,"count":48,"type":"VEC2","name":"accessorUVs"},{"bufferView":0,"byteOffset":78000,"componentType":5123,"count":72,"type":"SCALAR","name":"accessorIndices"},{"bufferView":1,"byteOffset":936000,"componentType":5126,"count":72,"max":[0.101191774,0.04902415,0.04604527],"min":[-0.101191729,0.00868060347,-0.0675965],"type":"VEC3","name":"accessorPositions"},{"bufferView":1,"byteOffset":936864,"componentType":5126,"count":72,"type":"VEC3","name":"accessorNormals"},{"bufferView":2,"byteOffset":312000,"componentType":5126,"count":72,"type":"VEC2","name":"accessorUVs"},{"bufferView":0,"byteOffset":78144,"componentType":5123,"count":1536,"type":"SCALAR","name":"accessorIndices"},{"bufferView":1,"byteOffset":937728,"componentType":5126,"count":1536,"max":[0.0620000027,0.0,0.0620000027],"min":[-0.0620000027,-0.00201655086,-0.0620000027],"type":"VEC3","name":"accessorPositions"},{"bufferView":1,"byteOffset":956160,"componentType":5126,"count":1536,"type":"VEC3","name":"accessorNormals"},{"bufferView":2,"byteOffset":312576,"componentType":5126,"count":1536,"type":"VEC2","name":"accessorUVs"}],"bufferViews":[{"buffer":0,"byteLength":81216,"name":"bufferViewScalar"},{"buffer":0,"byteOffset":81216,"byteLength":974592,"byteStride":12,"name":"bufferViewFloatVec3"},{"buffer":0,"byteOffset":1055808,"byteLength":324864,"byteStride":8,"name":"bufferViewFloatVec2"}],"buffers":[{"uri":"cd.bin","byteLength":1380672}]}