{"asset":{"version":"2.0","generator":"babylon.js glTF exporter for 3dsmax 2020 v20210514.3"},"scene":0,"scenes":[{"nodes":[0]}],"nodes":[{"mesh":0,"translation":[-0.000539868546,0.0,0.000755818],"name":"Teapot001"}],"meshes":[{"primitives":[{"attributes":{"POSITION":1,"NORMAL":2,"TEXCOORD_0":3},"indices":0,"material":0}],"name":"Teapot001"}],"accessors":[{"bufferView":0,"componentType":5123,"count":12288,"type":"SCALAR","name":"accessorIndices"},{"bufferView":1,"componentType":5126,"count":12288,"max":[0.0312832259,0.0287030973,0.0182241891],"min":[-0.0273362827,0.0,-0.0182241891],"type":"VEC3","name":"accessorPositions"},{"bufferView":1,"byteOffset":147456,"componentType":5126,"count":12288,"type":"VEC3","name":"accessorNormals"},{"bufferView":2,"componentType":5126,"count":12288,"type":"VEC2","name":"accessorUVs"}],"bufferViews":[{"buffer":0,"byteLength":24576,"name":"bufferViewScalar"},{"buffer":0,"byteOffset":24576,"byteLength":294912,"byteStride":12,"name":"bufferViewFloatVec3"},{"buffer":0,"byteOffset":319488,"byteLength":98304,"byteStride":8,"name":"bufferViewFloatVec2"}],"buffers":[{"uri":"teapot.bin","byteLength":417792}],"materials":[{"pbrMetallicRoughness":{"baseColorTexture":{"index":0},"metallicFactor":0.0,"roughnessFactor":0.450053632},"name":"Material #47"}],"textures":[{"sampler":0,"source":0,"name":"alfonso-fulgencio-moon-4k-texture.jpg"}],"images":[{"uri":"./alfonso-fulgencio-moon-4k-texture.jpg"}],"samplers":[{"magFilter":9729,"minFilter":9987}]}